<svg width="25" height="25" viewBox="0 0 25 25" fill="none" xmlns="http://www.w3.org/2000/svg">
<path d="M2.72705 12.7236C2.65804 12.5162 2.65804 12.292 2.72705 12.0846C4.11405 7.91161 8.05105 4.90161 12.6911 4.90161C17.3291 4.90161 21.2641 7.90861 22.6541 12.0796C22.7241 12.2866 22.7241 12.5106 22.6541 12.7186C21.2681 16.8916 17.3311 19.9016 12.6911 19.9016C8.05305 19.9016 4.11705 16.8946 2.72705 12.7236Z" stroke="#0F172A" stroke-width="1.5" stroke-linecap="round" stroke-linejoin="round"/>
<path d="M15.6909 12.4016C15.6909 13.1973 15.3748 13.9603 14.8122 14.5229C14.2496 15.0855 13.4866 15.4016 12.6909 15.4016C11.8953 15.4016 11.1322 15.0855 10.5696 14.5229C10.007 13.9603 9.69092 13.1973 9.69092 12.4016C9.69092 11.606 10.007 10.8429 10.5696 10.2803C11.1322 9.71768 11.8953 9.40161 12.6909 9.40161C13.4866 9.40161 14.2496 9.71768 14.8122 10.2803C15.3748 10.8429 15.6909 11.606 15.6909 12.4016Z" stroke="#0F172A" stroke-width="1.5" stroke-linecap="round" stroke-linejoin="round"/>
</svg>
