<svg width="222" height="232" viewBox="0 0 222 232" fill="none" xmlns="http://www.w3.org/2000/svg">
<g filter="url(#filter0_d_424_2134)">
<path d="M125.7 59.99C125.7 59.99 128.92 75.49 127.52 86.22C126.95 90.57 122.9 93.68 118.55 93.05C113.16 92.27 106.09 89.64 103.36 81.55L97.0302 68.38C97.0302 68.38 93.3502 59.99 101.46 52.56C109.57 45.13 124.21 50.45 125.7 59.99Z" fill="#F4A28C"/>
<path d="M98.1791 70.77L96.1191 122.6L124.769 121.7L114.759 84.34L98.1791 70.77Z" fill="#F4A28C"/>
<path d="M121.88 61.1001C119.15 61.5701 114.11 62.1501 107.26 61.7001C107.26 61.7001 112.99 67.9601 108.97 76.0801C104.95 84.2001 96.5803 81.8701 96.5803 81.8701L94.4403 61.6401C93.6303 55.7701 96.0703 49.9001 100.86 46.4001C102.82 44.9701 105 43.5201 107.21 42.3101C112.75 39.2901 121.72 42.1601 126.47 37.6101C128.55 35.6201 132.02 36.6001 132.78 39.3801C134.42 45.4201 134.47 55.2101 126.55 59.5601C125.1 60.3601 123.51 60.8101 121.88 61.0901V61.1001Z" fill="#24285B"/>
<path d="M110.591 75.43C110.591 75.43 109.761 69.39 105.261 70.4C100.771 71.41 101.921 80.14 108.201 80.22L110.591 75.43Z" fill="#F4A28C"/>
<path d="M127.22 69.8599L132.32 75.3999C133.58 76.7699 132.99 78.9799 131.21 79.5399L125.33 81.3799L127.22 69.8599Z" fill="#F4A28C"/>
<g opacity="0.31">
<path d="M117.299 92.4198C117.299 92.4198 111.919 91.9698 107.449 88.0298C107.449 88.0298 108.969 97.3998 120.429 105.48L117.309 92.4198H117.299Z" fill="#CE8172"/>
</g>
<path d="M36.1907 192.85C36.1907 192.85 34.4907 123.24 109.581 119.63C184.661 116.03 182.671 195.92 182.671 195.92C182.671 195.92 111.831 260.48 36.1907 192.85Z" fill="#60F898"/>
</g>
<defs>
<filter id="filter0_d_424_2134" x="32.1875" y="36.561" width="154.488" height="195.164" filterUnits="userSpaceOnUse" color-interpolation-filters="sRGB">
<feFlood flood-opacity="0" result="BackgroundImageFix"/>
<feColorMatrix in="SourceAlpha" type="matrix" values="0 0 0 0 0 0 0 0 0 0 0 0 0 0 0 0 0 0 127 0" result="hardAlpha"/>
<feOffset dy="4"/>
<feGaussianBlur stdDeviation="2"/>
<feComposite in2="hardAlpha" operator="out"/>
<feColorMatrix type="matrix" values="0 0 0 0 0 0 0 0 0 0 0 0 0 0 0 0 0 0 0.25 0"/>
<feBlend mode="normal" in2="BackgroundImageFix" result="effect1_dropShadow_424_2134"/>
<feBlend mode="normal" in="SourceGraphic" in2="effect1_dropShadow_424_2134" result="shape"/>
</filter>
</defs>
</svg>
